<svg width="50" height="50" viewBox="0 0 50 50" fill="none" xmlns="http://www.w3.org/2000/svg">
<path d="M34.1152 6.77246C36.5305 6.77967 38.8448 7.74234 40.5527 9.45022C42.2606 11.1581 43.2233 13.4724 43.2305 15.8877V34.1162C43.2233 36.5315 42.2606 38.8458 40.5527 40.5537C38.8448 42.2616 36.5305 43.2242 34.1152 43.2314H15.8867C13.4714 43.2242 11.1571 42.2616 9.44924 40.5537C7.74137 38.8458 6.7787 36.5315 6.77148 34.1162V15.8877C6.7787 13.4724 7.74137 11.1581 9.44924 9.45022C11.1571 7.74234 13.4714 6.77967 15.8867 6.77246H34.1152V6.77246ZM34.1152 3.12695H15.8867C8.86816 3.12695 3.12598 8.86914 3.12598 15.8877V34.1162C3.12598 41.1348 8.86816 46.877 15.8867 46.877H34.1152C41.1338 46.877 46.876 41.1348 46.876 34.1162V15.8877C46.876 8.86914 41.1338 3.12695 34.1152 3.12695V3.12695Z" fill="white"/>
<path d="M36.8566 15.9034C36.3143 15.9034 35.7841 15.7425 35.3332 15.4412C34.8822 15.1399 34.5307 14.7116 34.3232 14.2105C34.1156 13.7095 34.0613 13.1581 34.1671 12.6262C34.2729 12.0942 34.5341 11.6056 34.9176 11.2221C35.3011 10.8386 35.7897 10.5774 36.3217 10.4716C36.8536 10.3658 37.405 10.4201 37.906 10.6277C38.4071 10.8352 38.8354 11.1867 39.1367 11.6377C39.438 12.0886 39.5989 12.6188 39.5989 13.1612C39.5996 13.5215 39.5292 13.8784 39.3917 14.2115C39.2542 14.5445 39.0522 14.8471 38.7974 15.1019C38.5426 15.3567 38.24 15.5587 37.907 15.6962C37.5739 15.8337 37.217 15.9041 36.8566 15.9034V15.9034Z" fill="white"/>
<path d="M25.0006 17.707C26.4428 17.707 27.8526 18.1347 29.0518 18.936C30.2509 19.7372 31.1856 20.8761 31.7375 22.2085C32.2894 23.5409 32.4338 25.0071 32.1524 26.4216C31.8711 27.8361 31.1766 29.1354 30.1568 30.1552C29.137 31.175 27.8377 31.8695 26.4232 32.1509C25.0086 32.4323 23.5425 32.2879 22.21 31.7359C20.8776 31.184 19.7387 30.2494 18.9375 29.0502C18.1362 27.8511 17.7086 26.4412 17.7086 24.999C17.7106 23.0657 18.4796 21.2122 19.8466 19.8451C21.2137 18.478 23.0672 17.7091 25.0006 17.707V17.707ZM25.0006 14.0615C22.8373 14.0615 20.7227 14.703 18.924 15.9048C17.1253 17.1067 15.7235 18.8149 14.8956 20.8134C14.0678 22.812 13.8512 25.0112 14.2732 27.1328C14.6952 29.2545 15.7369 31.2034 17.2666 32.733C18.7962 34.2626 20.7451 35.3043 22.8668 35.7264C24.9884 36.1484 27.1876 35.9318 29.1862 35.104C31.1847 34.2761 32.8929 32.8742 34.0948 31.0756C35.2966 29.2769 35.9381 27.1623 35.9381 24.999C35.9381 22.0982 34.7857 19.3162 32.7345 17.265C30.6834 15.2139 27.9014 14.0615 25.0006 14.0615V14.0615Z" fill="white"/>
</svg>
