<svg width="50" height="50" viewBox="0 0 50 50" fill="none" xmlns="http://www.w3.org/2000/svg">
<path d="M4.70695 13.9538H14.9449C15.2576 10.5291 16.2229 7.45367 17.6097 5.07655C19.4452 1.93392 22.0557 0 25.0061 0C27.9564 0 30.5533 1.94735 32.4024 5.07655C33.7892 7.44024 34.7545 10.5291 35.0673 13.9538H45.2916C46.5017 13.9538 47.5894 14.9342 47.4942 16.1295L45.4412 44.4265C45.1828 47.9721 42.9259 50 39.6492 50H10.363C6.71919 50 4.78853 47.4886 4.57099 44.4265L2.50436 16.1429C2.42279 14.9476 3.49689 13.9538 4.70695 13.9538ZM17.501 13.9538H32.484C32.1849 10.9858 31.3555 8.35348 30.1726 6.33897C28.813 3.98872 26.9639 2.52485 25.0061 2.52485C23.0346 2.52485 21.1991 3.98872 19.8123 6.3524C18.6295 8.35348 17.8137 10.9992 17.501 13.9538Z" fill="white"/>
<path d="M17.932 39.4974C17.48 39.1854 17.3637 38.5745 17.6737 38.1196C17.9837 37.6646 18.5908 37.5477 19.0428 37.8596C19.327 38.0546 19.6241 38.2496 19.947 38.4445C22.2203 39.8354 24.3127 40.5243 26.0564 40.5243C27.6322 40.5243 28.911 39.9263 29.7247 38.7175C29.7764 38.6265 29.828 38.5745 29.8409 38.5355C30.0734 38.1586 30.2413 37.7556 30.3576 37.3657C30.5901 36.5598 30.5513 35.7279 30.2284 34.974C29.8797 34.1811 29.208 33.4142 28.1618 32.7773C27.4643 32.3483 26.5989 31.9714 25.5527 31.6854C22.8919 30.9315 20.9286 29.8657 19.8695 28.4359C18.707 26.8631 18.6166 24.9653 19.8566 22.6646C20.6832 21.1438 22.3753 20.195 24.5194 20.026C26.3664 19.883 28.5881 20.3249 30.8484 21.4818C31.3392 21.7288 31.533 22.3267 31.2747 22.8206C31.0163 23.3145 30.4351 23.5095 29.9443 23.2496C28.0197 22.2617 26.1856 21.8847 24.6615 22.0017C23.2019 22.1187 22.0911 22.6906 21.6003 23.6005C20.7736 25.1213 20.7866 26.3171 21.4582 27.227C22.2332 28.2799 23.8477 29.0988 26.0952 29.7357C27.3093 30.0866 28.3426 30.5286 29.1951 31.0485C30.603 31.9064 31.5459 32.9853 32.0496 34.1551C32.5663 35.3639 32.6309 36.6378 32.2821 37.8856C32.1271 38.4445 31.8817 39.0035 31.5459 39.5494C31.4684 39.6664 31.4167 39.7574 31.378 39.8224C30.1768 41.6031 28.3297 42.487 26.0823 42.5C23.9769 42.5 21.5228 41.7201 18.9395 40.1343C18.6166 39.9523 18.2808 39.7444 17.932 39.4974Z" fill="black"/>
</svg>
