<svg width="50" height="50" viewBox="0 0 50 50" fill="none" xmlns="http://www.w3.org/2000/svg">
<path d="M40.2534 11.5859C39.937 11.4224 39.629 11.2432 39.3305 11.0488C38.4626 10.4751 37.6668 9.79897 36.9604 9.03516C35.1928 7.0127 34.5326 4.96094 34.2895 3.52441H34.2992C34.0961 2.33203 34.1801 1.56055 34.1928 1.56055H26.142V32.6914C26.142 33.1094 26.142 33.5225 26.1244 33.9307C26.1244 33.9814 26.1196 34.0283 26.1166 34.083C26.1166 34.1055 26.1166 34.1289 26.1117 34.1523C26.1117 34.1582 26.1117 34.1641 26.1117 34.1699C26.0269 35.2869 25.6688 36.3659 25.0691 37.312C24.4693 38.2581 23.6463 39.0423 22.6723 39.5957C21.6572 40.1732 20.5091 40.4761 19.3412 40.4746C15.5903 40.4746 12.5502 37.416 12.5502 33.6387C12.5502 29.8613 15.5903 26.8027 19.3412 26.8027C20.0513 26.8021 20.757 26.9138 21.4321 27.1338L21.4418 18.9365C19.3924 18.6718 17.3103 18.8347 15.327 19.4149C13.3436 19.9951 11.502 20.9801 9.91838 22.3076C8.53075 23.5133 7.36416 24.9519 6.47112 26.5586C6.13127 27.1445 4.84905 29.499 4.69377 33.3203C4.59612 35.4893 5.24748 37.7363 5.55803 38.665V38.6846C5.75334 39.2314 6.51018 41.0977 7.74358 42.6709C8.73815 43.9329 9.9132 45.0415 11.2309 45.9609V45.9414L11.2504 45.9609C15.1479 48.6094 19.4692 48.4355 19.4692 48.4355C20.2172 48.4053 22.7231 48.4355 25.5688 47.0869C28.725 45.5918 30.5219 43.3643 30.5219 43.3643C31.6698 42.0333 32.5826 40.5165 33.2211 38.8789C33.9496 36.9639 34.1928 34.667 34.1928 33.749V17.2334C34.2905 17.292 35.5912 18.1523 35.5912 18.1523C35.5912 18.1523 37.4653 19.3535 40.3891 20.1357C42.4867 20.6924 45.3129 20.8096 45.3129 20.8096V12.8174C44.3227 12.9248 42.3119 12.6123 40.2534 11.5859Z" fill="white"/>
</svg>
