<svg width="69" height="46" viewBox="0 0 69 46" fill="none" xmlns="http://www.w3.org/2000/svg">
<g clip-path="url(#clip0_91_3087)">
<path fill-rule="evenodd" clip-rule="evenodd" d="M34.5067 6.5583C35.9275 5.89135 37.6513 5.52818 39.2292 5.39977L41.001 5.25507C42.9432 5.09792 44.8865 5.19375 46.8298 5.19375H47.8963V6.19512C47.8963 10.6385 47.8963 15.0839 47.8963 19.5283V20.039C47.8963 24.6271 43.9006 28.3787 39.0118 28.3787H21.1049V5.19375H22.1705C24.1168 5.19375 26.0529 5.07396 27.9982 5.21579L29.771 5.34132C31.4541 5.46014 32.9952 5.8444 34.5067 6.5583Z" fill="#4D4C4B"/>
<path fill-rule="evenodd" clip-rule="evenodd" d="M22.1705 6.19521V17.6166V19.5283V20.0391V27.3793H29.9864H31.2152H39.0118C43.3127 27.3793 46.8298 24.0753 46.8298 20.0391V19.5283C46.8298 15.1098 46.8298 10.7996 46.8298 6.19521C44.962 6.19521 42.9882 6.15209 41.0939 6.25271L39.3211 6.39645C37.586 6.59385 35.8305 6.97427 34.5006 7.69488C33.0646 6.91582 31.499 6.52868 29.6904 6.33895L27.9176 6.21246C25.9845 6.12814 24.0025 6.19521 22.1705 6.19521Z" fill="white"/>
<path fill-rule="evenodd" clip-rule="evenodd" d="M24.3812 27.379H29.9864H31.2153H39.0118C40.9173 27.379 42.6677 26.7303 44.0262 25.658C42.4391 22.1939 38.771 19.7695 34.4996 19.7695C29.5516 19.7695 25.413 23.0238 24.3812 27.379Z" fill="white"/>
<path fill-rule="evenodd" clip-rule="evenodd" d="M34.5007 27.3788L39.1037 27.3146C40.9827 27.3146 42.6942 26.6918 44.0272 25.6588C45.7429 24.3268 46.8298 22.3106 46.8298 20.0386V19.5279C46.8298 15.1094 46.8298 10.7991 46.8298 6.19473C44.9621 6.19473 42.9882 6.15161 41.0939 6.25223L39.3211 6.39597C37.586 6.59337 35.8305 6.97379 34.5007 7.6944V27.3788Z" fill="white"/>
<path fill-rule="evenodd" clip-rule="evenodd" d="M34.5007 27.3791H39.0404C40.9459 27.3791 42.6677 26.7303 44.0272 25.659C42.4575 22.2332 38.7097 19.8242 34.5007 19.7715V27.3791Z" fill="white"/>
<path fill-rule="evenodd" clip-rule="evenodd" d="M41.0939 5.55883C40.755 2.43492 37.9422 0 34.5282 0C31.1152 0 28.3044 2.41384 27.9176 5.5205L29.6904 5.64699C30.0038 3.40372 32.0399 1.66832 34.521 1.66832C37.0012 1.66832 39.0557 3.43246 39.321 5.70257L41.0939 5.55883Z" fill="white"/>
<path fill-rule="evenodd" clip-rule="evenodd" d="M37.3839 20.7459C36.6113 21.5134 35.8397 22.28 35.0681 23.0486L34.4996 23.6139L33.9321 23.0486C33.1606 22.282 32.389 21.5134 31.6163 20.7459L31.2173 20.3472L31.5092 19.8748C32.1287 18.8715 33.2871 18.332 34.4996 18.332C35.7142 18.332 36.8715 18.8715 37.4911 19.8748L37.784 20.3472L37.3839 20.7459Z" fill="#4D4C4B"/>
<path fill-rule="evenodd" clip-rule="evenodd" d="M36.8154 20.2431C36.0449 21.0107 35.2712 21.7773 34.4996 22.5458C33.728 21.7773 32.9565 21.0107 32.1838 20.2431C32.6717 19.4545 33.5872 19.0645 34.4996 19.0654C35.4131 19.0645 36.3276 19.4545 36.8154 20.2431Z" fill="#FDF8B4"/>
<path fill-rule="evenodd" clip-rule="evenodd" d="M36.8154 20.2431C36.0449 21.0107 35.2712 21.7773 34.4996 22.5458V19.0654C35.4131 19.0645 36.3276 19.4545 36.8154 20.2431Z" fill="#FCD066"/>
<path fill-rule="evenodd" clip-rule="evenodd" d="M28.7137 9.08203C32.1726 9.08203 34.9783 11.7172 34.9783 14.9628C34.9783 18.2104 32.1726 20.8446 28.7137 20.8446C25.2548 20.8446 22.4501 18.2104 22.4501 14.9628C22.4501 11.7172 25.2548 9.08203 28.7137 9.08203Z" fill="#4D4C4B"/>
<path fill-rule="evenodd" clip-rule="evenodd" d="M28.7137 10.083C31.5847 10.083 33.9128 12.2688 33.9128 14.9634C33.9128 17.659 31.5847 19.8447 28.7137 19.8447C25.8417 19.8447 23.5157 17.659 23.5157 14.9634C23.5157 12.2688 25.8417 10.083 28.7137 10.083Z" fill="#EEEFEE"/>
<path fill-rule="evenodd" clip-rule="evenodd" d="M28.7137 10.083C31.0826 10.083 33.083 11.5721 33.7086 13.6075C33.083 15.6418 31.0826 17.131 28.7137 17.131C26.3438 17.131 24.3465 15.6418 23.7198 13.6075C24.3465 11.5721 26.3438 10.083 28.7137 10.083Z" fill="#FEFEFE"/>
<path fill-rule="evenodd" clip-rule="evenodd" d="M40.2866 9.08203C43.7455 9.08203 46.5501 11.7172 46.5501 14.9628C46.5501 18.2104 43.7455 20.8446 40.2866 20.8446C36.8277 20.8446 34.022 18.2123 34.022 14.9628C34.022 11.7172 36.8277 9.08203 40.2866 9.08203Z" fill="#4D4C4B"/>
<path fill-rule="evenodd" clip-rule="evenodd" d="M40.2865 10.083C43.1565 10.083 45.4846 12.2688 45.4846 14.9634C45.4846 17.659 43.1565 19.8447 40.2865 19.8447C37.4155 19.8447 35.0885 17.659 35.0885 14.9634C35.0885 12.2688 37.4155 10.083 40.2865 10.083Z" fill="#EEEFEE"/>
<path fill-rule="evenodd" clip-rule="evenodd" d="M40.2865 10.083C42.6554 10.083 44.6548 11.5721 45.2805 13.6075C44.6548 15.6418 42.6554 17.131 40.2865 17.131C37.9167 17.131 35.9173 15.6418 35.2906 13.6075C35.9173 11.5721 37.9167 10.083 40.2865 10.083Z" fill="#FEFEFE"/>
<path fill-rule="evenodd" clip-rule="evenodd" d="M29.3669 11.9287C31.2214 11.9287 32.7247 13.3402 32.7247 15.0785C32.7247 16.8206 31.2214 18.2321 29.3669 18.2321C27.5124 18.2321 26.009 16.8206 26.009 15.0785C26.009 14.4987 26.1774 13.9554 26.4693 13.4878C26.7092 14.0445 27.2889 14.4355 27.9686 14.4355C28.8617 14.4355 29.5863 13.7571 29.5863 12.9186C29.5863 12.541 29.4394 12.1961 29.1975 11.9316C29.2536 11.9287 29.3108 11.9287 29.3669 11.9287Z" fill="#4D4C4B"/>
<path fill-rule="evenodd" clip-rule="evenodd" d="M39.6323 11.9287C41.4878 11.9287 42.9902 13.3402 42.9902 15.0785C42.9902 16.8206 41.4878 18.2321 39.6313 18.2321C37.7789 18.2321 36.2755 16.8206 36.2755 15.0785C36.2755 14.4987 36.4429 13.9554 36.7338 13.4878C36.9746 14.0445 37.5554 14.4355 38.2351 14.4355C39.1271 14.4355 39.8508 13.7571 39.8508 12.9186C39.8508 12.541 39.7058 12.1961 39.4639 11.9316C39.5201 11.9287 39.5752 11.9287 39.6323 11.9287Z" fill="#4D4C4B"/>
<path fill-rule="evenodd" clip-rule="evenodd" d="M36.8889 41.8626C36.1398 42.5765 35.2427 42.9358 34.2026 42.9358C33.3627 42.9358 32.6482 42.7749 31.9185 42.3772V40.7395C32.5053 41.1123 33.2422 41.4688 33.9689 41.4688C35.4856 41.4688 36.3888 40.4885 36.3888 39.1C36.3888 37.7105 35.4539 36.7014 33.9383 36.7014C33.2596 36.7014 32.7115 36.9305 32.2818 37.3885C31.8215 37.8849 31.5847 38.595 31.5847 39.5331V46.0003H31.4704C30.6345 46.0003 29.9568 45.3641 29.9568 44.5802V39.2906C29.9568 37.0464 31.4184 35.2344 33.9301 35.2344C35.1702 35.2344 36.1776 35.632 36.941 36.4322C37.6595 37.1796 38.0157 38.1264 38.0157 39.2657C38.0157 40.2805 37.6401 41.1477 36.8889 41.8626ZM2.38466 42.7854C0.793504 42.7854 0.00354004 41.7687 0.00354004 40.3495V34.9641C0.00354004 34.1793 0.681235 33.544 1.51713 33.544H1.63042V35.3858H4.37998V36.8528H1.63042V40.5191C1.63042 41.1429 1.92742 41.3183 2.56123 41.3183H4.37998V42.7854H2.38466ZM11.8356 41.8492C11.0304 42.5736 10.0649 42.9358 8.94217 42.9358C7.83071 42.9358 6.86929 42.5727 6.06605 41.8492C5.25874 41.1228 4.85661 40.1991 4.85661 39.0856C4.85661 36.9123 6.62434 35.2344 8.94217 35.2344C10.0547 35.2344 11.0181 35.6004 11.8265 36.3287C12.6389 37.0598 13.0441 37.9807 13.0441 39.0856C13.0441 40.1991 12.6409 41.1228 11.8356 41.8492ZM19.4424 37.1662C19.2035 37.5418 19.0188 37.8111 18.8882 37.974C18.7443 38.1513 18.6034 38.2921 18.4626 38.3899C19.5934 38.7339 20.0149 39.4689 20.0149 40.5651V42.7854H19.9006C19.0647 42.7854 18.387 42.1491 18.387 41.3643V40.7156C18.387 40.0065 18.0492 39.5245 17.248 39.5245H15.7702V42.7854H15.6558C14.82 42.7854 14.1423 42.1491 14.1423 41.3643V33.4855C14.1423 32.7007 14.82 32.0645 15.6558 32.0645H15.7702V38.042H16.2509C16.7796 38.042 17.1266 37.8724 17.3256 37.5514L18.6932 35.3858L20.5477 35.3838L19.4424 37.1662ZM27.8421 41.8492C27.0379 42.5736 26.0713 42.9358 24.9497 42.9358C23.8372 42.9358 22.8768 42.5727 22.0725 41.8492C21.2662 41.1228 20.8641 40.1991 20.8641 39.0856C20.8641 36.9123 22.6318 35.2344 24.9497 35.2344C26.0621 35.2344 27.0256 35.6004 27.8339 36.3287C28.6453 37.0598 29.0515 37.9807 29.0515 39.0856C29.0515 40.1991 28.6484 41.1228 27.8421 41.8492ZM26.6674 37.3636C26.2193 36.9228 25.6488 36.7014 24.9497 36.7014C23.4514 36.7014 22.5553 37.7268 22.5553 39.0856C22.5553 40.4252 23.4738 41.4688 24.9497 41.4688C26.4265 41.4688 27.343 40.4252 27.343 39.0856C27.343 38.3736 27.1154 37.8034 26.6674 37.3636ZM10.6599 37.3636C10.2118 36.9228 9.64232 36.7014 8.94217 36.7014C7.44492 36.7014 6.54881 37.7268 6.54881 39.0856C6.54881 40.4252 7.46635 41.4688 8.94217 41.4688C10.418 41.4688 11.3366 40.4252 11.3366 39.0856C11.3366 38.3736 11.109 37.8034 10.6599 37.3636ZM54.508 41.808C53.7609 42.5602 52.7995 42.9358 51.6339 42.9358C50.404 42.9358 49.4018 42.5372 48.6394 41.738C47.9219 40.981 47.5647 40.0333 47.5647 38.9045C47.5647 36.9046 49.2089 35.2344 51.3706 35.2344C52.2055 35.2344 52.9301 35.3992 53.6619 35.7767V37.4307C53.074 37.057 52.3381 36.7014 51.6114 36.7014C50.0948 36.7014 49.1926 37.6808 49.1926 39.0702C49.1926 40.4405 50.1479 41.4688 51.6421 41.4688C52.3187 41.4688 52.877 41.2301 53.322 40.751C53.765 40.2738 53.9956 39.5733 53.9956 38.6323V33.4855C53.9956 32.7007 54.6733 32.0645 55.5092 32.0645H55.6225V38.8738C55.6225 40.0735 55.2541 41.0548 54.508 41.808ZM59.1028 34.507C58.9314 34.6872 58.6864 34.7696 58.3874 34.7696C57.8291 34.7696 57.43 34.3825 57.43 33.8621C57.43 33.3293 57.823 32.97 58.3874 32.97C58.9324 32.97 59.3468 33.3495 59.3468 33.8621C59.3468 34.1161 59.2672 34.3336 59.1028 34.507ZM67.3699 38.6323C67.3699 38.0305 67.128 37.5533 66.6391 37.1921C66.2003 36.8672 65.6512 36.7014 64.9847 36.7014C63.5119 36.7014 62.5668 37.7824 62.5668 39.1153C62.5668 40.3984 63.5681 41.4688 64.9694 41.4688C65.9431 41.4688 66.4646 40.934 67.0198 40.269V42.1884C66.7371 42.3868 66.4115 42.6043 66.0788 42.7317C65.7277 42.8688 65.3103 42.9358 64.8255 42.9358C62.4842 42.9358 60.9389 41.1142 60.9389 39.0099C60.9389 37.929 61.2972 37.0359 62.0167 36.3383C62.7801 35.6004 63.7824 35.2344 65.0082 35.2344C67.3342 35.2344 68.9978 36.4878 68.9978 38.7531V42.7854H68.8835C68.0476 42.7854 67.3699 42.1491 67.3699 41.3643V38.6323ZM45.0958 38.2002C44.8896 37.6022 44.6314 37.309 44.0384 36.9985C42.6289 36.2578 41.2409 36.8873 40.5948 38.1944L45.0958 38.2002ZM43.8537 42.9138C42.8147 43.1208 41.7941 42.9608 40.8 42.4395C39.8294 41.9297 39.1782 41.1727 38.8526 40.1732C38.1943 38.1503 39.5436 35.8965 41.7134 35.3503C42.7892 35.0801 43.821 35.2027 44.8008 35.7173C46.4287 36.5711 47.0217 37.8926 46.9186 39.5954L40.3621 39.582C40.4591 40.2767 40.9173 40.82 41.5624 41.1583C42.2156 41.5013 42.8167 41.5828 43.374 41.4208C43.9925 41.2378 44.4946 40.7644 44.9029 40.3227L46.2389 41.2359C45.6939 42.152 44.9519 42.6934 43.8537 42.9138ZM57.575 35.3858H59.2018V42.7854H59.0875C58.2527 42.7854 57.575 42.1491 57.575 41.3643V35.3858Z" fill="white"/>
</g>
<defs>
<clipPath id="clip0_91_3087">
<rect width="69" height="46" fill="white" transform="translate(0.000671387)"/>
</clipPath>
</defs>
</svg>
