<svg width="35" height="51" viewBox="0 0 35 51" fill="none" xmlns="http://www.w3.org/2000/svg">
<g clip-path="url(#clip0_96_3139)">
<path d="M1.08354 45.9318C0.928839 45.827 0.880497 45.6174 0.98685 45.4554C1.0932 45.3029 1.30591 45.2553 1.47028 45.3601C1.56696 45.4268 1.67331 45.4935 1.78934 45.5602C2.58215 46.0366 3.32663 46.2747 3.93575 46.2747C4.48685 46.2747 4.94127 46.0651 5.22166 45.6555C5.24099 45.6269 5.26033 45.6078 5.26033 45.5888C5.33768 45.4554 5.40536 45.322 5.44403 45.1886C5.52138 44.9123 5.51171 44.6265 5.39569 44.3693C5.27967 44.093 5.03796 43.8357 4.67055 43.6166C4.42884 43.4737 4.11945 43.3403 3.75204 43.2355C2.8142 42.9783 2.12773 42.6067 1.75066 42.1208C1.34459 41.5777 1.31558 40.9299 1.75066 40.1391C2.04072 39.6151 2.6305 39.2912 3.38464 39.234C4.03243 39.1864 4.81558 39.3388 5.6084 39.739C5.78243 39.8247 5.85011 40.0343 5.76309 40.1963C5.67608 40.3678 5.46337 40.4345 5.29901 40.3487C4.62221 40.0057 3.97442 39.8819 3.44265 39.92C2.93022 39.9581 2.53381 40.1582 2.36945 40.4726C2.07939 40.9966 2.07939 41.4063 2.3211 41.7207C2.59182 42.0827 3.16226 42.3685 3.94541 42.5876C4.37083 42.702 4.72856 42.8639 5.02829 43.045C5.52138 43.3403 5.85011 43.7119 6.02414 44.112C6.20784 44.5217 6.22718 44.9695 6.10149 45.3887C6.04348 45.5792 5.95646 45.7793 5.84044 45.9603C5.81144 45.9984 5.7921 46.0366 5.78243 46.0556C5.36668 46.6654 4.70923 46.9702 3.91641 46.9702C3.1816 46.9702 2.3211 46.7035 1.41226 46.1604C1.32525 46.0842 1.20923 46.0175 1.08354 45.9318Z" fill="white"/>
<path d="M7.26172 39.5573C7.26172 39.3763 7.41641 39.2334 7.60978 39.2334C7.80316 39.2334 7.95785 39.3763 7.95785 39.5573V46.6362C7.95785 46.8172 7.80316 46.9601 7.60978 46.9601C7.41641 46.9601 7.26172 46.8172 7.26172 46.6362V39.5573Z" fill="white"/>
<path d="M7.97717 43.9684C7.85147 44.1114 7.63877 44.1399 7.48407 44.0161C7.33904 43.8922 7.31004 43.6826 7.43573 43.5302C7.9675 42.8919 8.56694 42.5012 9.15672 42.3297C9.58214 42.2059 9.99788 42.1964 10.3556 42.2916C10.7327 42.3964 11.0614 42.606 11.2935 42.93C11.5158 43.2348 11.6415 43.6255 11.6415 44.0923V46.6266C11.6415 46.8171 11.4868 46.9696 11.2935 46.9696C11.1001 46.9696 10.9454 46.8171 10.9454 46.6266V44.0923C10.9454 43.7684 10.868 43.5111 10.7327 43.3206C10.5973 43.1396 10.4136 43.0157 10.1816 42.949C9.93987 42.8823 9.65949 42.8919 9.35976 42.9776C8.89567 43.1205 8.41225 43.4444 7.97717 43.9684Z" fill="white"/>
<path d="M15.0546 42.2256C15.7217 42.2256 16.3211 42.4924 16.7562 42.9211C17.1913 43.3498 17.462 43.9405 17.462 44.5979C17.462 45.2553 17.1913 45.846 16.7562 46.2747C16.3211 46.7034 15.7217 46.9702 15.0546 46.9702C14.3874 46.9702 13.788 46.7034 13.3529 46.2747C12.9178 45.846 12.6471 45.2553 12.6471 44.5979C12.6471 43.9405 12.9178 43.3498 13.3529 42.9211C13.788 42.4924 14.3971 42.2256 15.0546 42.2256ZM16.2728 43.3975C15.9634 43.0926 15.5283 42.902 15.0546 42.902C14.5808 42.902 14.1554 43.0926 13.8363 43.3975C13.5269 43.7023 13.3336 44.1311 13.3336 44.5979C13.3336 45.0647 13.5269 45.4935 13.8363 45.7983C14.1457 46.1032 14.5808 46.2938 15.0546 46.2938C15.5283 46.2938 15.9537 46.1032 16.2728 45.7983C16.5822 45.4935 16.7755 45.0647 16.7755 44.5979C16.7755 44.1311 16.5822 43.7023 16.2728 43.3975Z" fill="white"/>
<path d="M18.4482 42.5686C18.4482 42.378 18.6029 42.2256 18.7962 42.2256C18.9896 42.2256 19.1443 42.378 19.1443 42.5686V42.9973C19.1733 42.9687 19.1927 42.9401 19.2217 42.9211C19.6567 42.4924 20.2562 42.2256 20.9233 42.2256C21.5904 42.2256 22.1899 42.4924 22.625 42.9211C23.0601 43.3498 23.3308 43.9405 23.3308 44.5979C23.3308 45.2553 23.0601 45.846 22.625 46.2747C22.1899 46.7034 21.5904 46.9702 20.9233 46.9702C20.2562 46.9702 19.6567 46.7034 19.2217 46.2747C19.1927 46.2461 19.1733 46.2176 19.1443 46.1985V49.3139C19.1443 49.5045 18.9896 49.6569 18.7962 49.6569C18.6029 49.6569 18.4482 49.5045 18.4482 49.3139V42.5686ZM22.1319 43.3975C21.8225 43.0926 21.3874 42.902 20.9137 42.902C20.4399 42.902 20.0145 43.0926 19.6954 43.3975C19.386 43.7023 19.1927 44.1311 19.1927 44.5979C19.1927 45.0647 19.386 45.4935 19.6954 45.7983C20.0048 46.1032 20.4399 46.2938 20.9137 46.2938C21.3874 46.2938 21.8128 46.1032 22.1319 45.7983C22.4413 45.4935 22.6346 45.0647 22.6346 44.5979C22.6346 44.1311 22.4413 43.7023 22.1319 43.3975Z" fill="white"/>
<path d="M26.5987 42.2256C27.1885 42.2256 27.7299 42.4542 28.1263 42.8544C28.4551 43.1783 28.5904 43.5023 28.7064 43.8452C29.0062 44.8075 28.4357 44.7694 28.2617 44.7694H25.0614C25.0904 44.998 25.1484 45.2077 25.2161 45.3982C25.3418 45.6935 25.5255 45.9127 25.7575 46.0651C25.9993 46.2176 26.3087 46.2938 26.6664 46.2938C27.0531 46.2938 27.5075 46.189 28.0103 45.9794C28.1843 45.9031 28.3874 45.9889 28.4647 46.1604C28.5421 46.3319 28.4551 46.532 28.281 46.6082C27.7009 46.8464 27.1595 46.9607 26.6761 46.9702C26.183 46.9797 25.7479 46.8654 25.3901 46.6368C25.0324 46.4081 24.723 46.0937 24.578 45.6554C24.2493 44.6932 24.2396 43.7404 25.0711 42.8544C25.4578 42.4447 26.0089 42.2256 26.5987 42.2256ZM27.6429 43.3403C27.3625 43.0735 26.9951 42.9116 26.5987 42.9116C26.2023 42.9116 25.8349 43.0735 25.5545 43.3403C25.3515 43.5404 25.1871 43.7881 25.1001 44.0739H28.107C28.0006 43.7881 27.8459 43.5404 27.6429 43.3403Z" fill="white"/>
<path d="M31.8778 42.2256C32.4675 42.2256 33.009 42.4542 33.4054 42.8544C33.7341 43.1783 33.8695 43.5023 33.9855 43.8452C34.2852 44.8075 33.7148 44.7694 33.5407 44.7694H30.3405C30.3695 44.998 30.4275 45.2077 30.4952 45.3982C30.6209 45.6935 30.8046 45.9127 31.0366 46.0651C31.2783 46.2176 31.5877 46.2938 31.9454 46.2938C32.3322 46.2938 32.7866 46.189 33.2894 45.9794C33.4634 45.9031 33.6664 45.9889 33.7438 46.1604C33.8211 46.3319 33.7341 46.532 33.5601 46.6082C32.98 46.8464 32.4385 46.9607 31.9551 46.9702C31.462 46.9797 31.0269 46.8654 30.6692 46.6368C30.3115 46.4081 30.0021 46.0937 29.857 45.6554C29.5283 44.6932 29.5186 43.7404 30.3501 42.8544C30.7369 42.4447 31.288 42.2256 31.8778 42.2256ZM32.922 43.3403C32.6416 43.0735 32.2742 42.9116 31.8778 42.9116C31.4814 42.9116 31.1139 43.0735 30.8336 43.3403C30.6305 43.5404 30.4662 43.7881 30.3791 44.0739H33.386C33.2797 43.7881 33.125 43.5404 32.922 43.3403Z" fill="white"/>
<path d="M3.52967 11.2515H10.8101C11.0324 8.822 11.7189 6.64023 12.7051 4.95388C14.0103 2.72448 15.8667 1.35254 17.9648 1.35254C20.0628 1.35254 21.9095 2.73401 23.2244 4.95388C24.2106 6.6307 24.8971 8.822 25.1194 11.2515H32.3902C33.2507 11.2515 34.0241 11.947 33.9565 12.7949L32.4965 32.8691C32.3128 35.3843 30.7078 36.8229 28.3777 36.8229H7.55177C4.96061 36.8229 3.58768 35.0413 3.43298 32.8691L1.96337 12.8044C1.90536 11.9565 2.66917 11.2515 3.52967 11.2515ZM12.6277 11.2515H23.2824C23.0697 9.14593 22.4799 7.27856 21.6388 5.84946C20.6719 4.18217 19.357 3.14368 17.9648 3.14368C16.5628 3.14368 15.2576 4.18217 14.2714 5.85898C13.4302 7.27856 12.8501 9.15545 12.6277 11.2515Z" fill="white"/>
<path d="M12.6761 29.7823C12.3377 29.5536 12.2506 29.1058 12.4827 28.7724C12.7147 28.4389 13.1692 28.3531 13.5076 28.5818C13.7203 28.7247 13.9426 28.8676 14.1843 29.0105C15.886 30.03 17.4523 30.5349 18.7576 30.5349C19.9371 30.5349 20.8943 30.0967 21.5034 29.2106C21.5421 29.1439 21.5808 29.1058 21.5904 29.0772C21.7645 28.8009 21.8901 28.5056 21.9772 28.2198C22.1512 27.6291 22.1222 27.0193 21.8805 26.4667C21.6194 25.8856 21.1167 25.3234 20.3335 24.8566C19.8114 24.5422 19.1636 24.2659 18.3805 24.0563C16.3888 23.5037 14.9192 22.7225 14.1263 21.6745C13.2562 20.5216 13.1885 19.1307 14.1167 17.4443C14.7355 16.3296 16.002 15.6341 17.607 15.5103C18.9896 15.4055 20.6526 15.7294 22.3446 16.5773C22.712 16.7583 22.857 17.1966 22.6636 17.5586C22.4703 17.9207 22.0352 18.0636 21.6678 17.873C20.2272 17.149 18.8542 16.8727 17.7134 16.9584C16.6208 17.0442 15.7893 17.4634 15.4219 18.1303C14.8031 19.245 14.8128 20.1215 15.3156 20.7884C15.8957 21.5601 17.1042 22.1604 18.7866 22.6272C19.6954 22.8844 20.4689 23.2084 21.107 23.5895C22.1609 24.2183 22.8667 25.009 23.2437 25.8665C23.6305 26.7525 23.6788 27.6862 23.4178 28.6009C23.3017 29.0105 23.118 29.4202 22.8667 29.8204C22.8087 29.9061 22.77 29.9728 22.741 30.0204C21.8418 31.3257 20.4592 31.9735 18.7769 31.9831C17.2009 31.9831 15.3639 31.4114 13.4302 30.2491C13.1885 30.1157 12.9371 29.9633 12.6761 29.7823Z" fill="black"/>
</g>
<defs>
<clipPath id="clip0_96_3139">
<rect width="35" height="51" fill="white" transform="translate(0.000671387)"/>
</clipPath>
</defs>
</svg>
