<svg width="50" height="50" viewBox="0 0 50 50" fill="none" xmlns="http://www.w3.org/2000/svg">
<path fill-rule="evenodd" clip-rule="evenodd" d="M24.3856 11.322C26.8381 10.1706 29.814 9.54368 32.5379 9.32201L35.5966 9.07222C38.9495 8.80093 42.3041 8.96635 45.6588 8.96635H47.5V10.695C47.5 18.3657 47.5 26.0397 47.5 33.712V34.5937C47.5 42.5142 40.6021 48.9905 32.1626 48.9905H1.25V8.96635H3.08943C6.44938 8.96635 9.79172 8.75957 13.1499 9.0044L16.2103 9.2211C19.1157 9.42623 21.7762 10.0896 24.3856 11.322Z" fill="#4D4C4B"/>
<path fill-rule="evenodd" clip-rule="evenodd" d="M3.08948 10.695V30.4118V33.712V34.5937V47.2652H16.5821H18.7035H32.1627C39.5873 47.2652 45.6589 41.5614 45.6589 34.5937V33.712C45.6589 26.0844 45.6589 18.6436 45.6589 10.695C42.4346 10.695 39.027 10.6206 35.757 10.7943L32.6965 11.0424C29.7013 11.3832 26.6708 12.0399 24.375 13.2839C21.896 11.939 19.1933 11.2707 16.0712 10.9432L13.0108 10.7248C9.67371 10.5792 6.2521 10.695 3.08948 10.695Z" fill="white"/>
<path fill-rule="evenodd" clip-rule="evenodd" d="M6.9057 47.2642H16.5821H18.7034H32.1626C35.4521 47.2642 38.4737 46.1443 40.8188 44.2932C38.0791 38.3131 31.7468 34.1279 24.3732 34.1279C15.8315 34.1279 8.68699 39.7457 6.9057 47.2642Z" fill="white"/>
<path fill-rule="evenodd" clip-rule="evenodd" d="M24.375 47.2637L32.3212 47.1529C35.5649 47.1529 38.5196 46.0776 40.8206 44.2944C43.7824 41.995 45.6588 38.5145 45.6588 34.5923V33.7106C45.6588 26.0829 45.6588 18.6422 45.6588 10.6936C42.4345 10.6936 39.027 10.6192 35.7569 10.7928L32.6965 11.041C29.7012 11.3818 26.6708 12.0385 24.375 13.2825V47.2637Z" fill="white"/>
<path fill-rule="evenodd" clip-rule="evenodd" d="M24.375 47.2648H32.212C35.5014 47.2648 38.4738 46.1449 40.8206 44.2954C38.1108 38.3816 31.6411 34.2228 24.375 34.1318V47.2648Z" fill="white"/>
<path fill-rule="evenodd" clip-rule="evenodd" d="M35.7569 9.5962C35.172 4.20341 30.3162 0 24.4226 0C18.5308 0 13.6785 4.16701 13.0107 9.53004L16.0712 9.74839C16.6121 5.87584 20.1271 2.88002 24.4103 2.88002C28.6917 2.88002 32.2384 5.92546 32.6965 9.84434L35.7569 9.5962Z" fill="white"/>
<path fill-rule="evenodd" clip-rule="evenodd" d="M29.3524 35.8135C28.0186 37.1385 26.6866 38.4619 25.3546 39.7886L24.3733 40.7646L23.3936 39.7886C22.0616 38.4652 20.7296 37.1385 19.3959 35.8135L18.707 35.1253L19.2109 34.3098C20.2804 32.5778 22.2801 31.6465 24.3733 31.6465C26.4699 31.6465 28.4679 32.5778 29.5374 34.3098L30.0431 35.1253L29.3524 35.8135Z" fill="#4D4C4B"/>
<path fill-rule="evenodd" clip-rule="evenodd" d="M28.371 34.9461C27.0407 36.2712 25.7052 37.5946 24.3732 38.9213C23.0412 37.5946 21.7092 36.2712 20.3754 34.9461C21.2176 33.5847 22.798 32.9114 24.3732 32.9131C25.9501 32.9114 27.5288 33.5847 28.371 34.9461Z" fill="#FDF8B4"/>
<path fill-rule="evenodd" clip-rule="evenodd" d="M28.3709 34.9461C27.0407 36.2712 25.7052 37.5946 24.3732 38.9213V32.9131C25.9501 32.9114 27.5287 33.5847 28.3709 34.9461Z" fill="#FCD066"/>
<path fill-rule="evenodd" clip-rule="evenodd" d="M14.385 15.6787C20.3561 15.6787 25.1996 20.2279 25.1996 25.8307C25.1996 31.4369 20.3561 35.9844 14.385 35.9844C8.41392 35.9844 3.5722 31.4369 3.5722 25.8307C3.5722 20.2279 8.41392 15.6787 14.385 15.6787Z" fill="#4D4C4B"/>
<path fill-rule="evenodd" clip-rule="evenodd" d="M14.3849 17.4062C19.3412 17.4062 23.3601 21.1796 23.3601 25.8313C23.3601 30.4846 19.3412 34.2579 14.3849 34.2579C9.42694 34.2579 5.41156 30.4846 5.41156 25.8313C5.41156 21.1796 9.42694 17.4062 14.3849 17.4062Z" fill="#EEEFEE"/>
<path fill-rule="evenodd" clip-rule="evenodd" d="M14.385 17.4062C18.4744 17.4062 21.9278 19.9769 23.0078 23.4905C21.9278 27.0025 18.4744 29.5731 14.385 29.5731C10.2939 29.5731 6.84585 27.0025 5.76404 23.4905C6.84585 19.9769 10.2939 17.4062 14.385 17.4062Z" fill="#FEFEFE"/>
<path fill-rule="evenodd" clip-rule="evenodd" d="M34.3633 15.6787C40.3344 15.6787 45.1761 20.2279 45.1761 25.8307C45.1761 31.4369 40.3344 35.9844 34.3633 35.9844C28.3922 35.9844 23.5487 31.4402 23.5487 25.8307C23.5487 20.2279 28.3922 15.6787 34.3633 15.6787Z" fill="#4D4C4B"/>
<path fill-rule="evenodd" clip-rule="evenodd" d="M34.3633 17.4062C39.3177 17.4062 43.3366 21.1796 43.3366 25.8313C43.3366 30.4846 39.3177 34.2579 34.3633 34.2579C29.407 34.2579 25.3899 30.4846 25.3899 25.8313C25.3899 21.1796 29.407 17.4062 34.3633 17.4062Z" fill="#EEEFEE"/>
<path fill-rule="evenodd" clip-rule="evenodd" d="M34.3632 17.4062C38.4526 17.4062 41.9042 19.9769 42.9842 23.4905C41.9042 27.0025 38.4526 29.5731 34.3632 29.5731C30.2721 29.5731 26.8205 27.0025 25.7387 23.4905C26.8205 19.9769 30.2721 17.4062 34.3632 17.4062Z" fill="#FEFEFE"/>
<path fill-rule="evenodd" clip-rule="evenodd" d="M15.5126 20.5928C18.714 20.5928 21.3093 23.0295 21.3093 26.0302C21.3093 29.0376 18.714 31.4743 15.5126 31.4743C12.3112 31.4743 9.71594 29.0376 9.71594 26.0302C9.71594 25.0294 10.0067 24.0915 10.5106 23.2842C10.9246 24.2453 11.9254 24.9202 13.0988 24.9202C14.6405 24.9202 15.8914 23.749 15.8914 22.3016C15.8914 21.6498 15.6377 21.0543 15.2201 20.5977C15.317 20.5928 15.4157 20.5928 15.5126 20.5928Z" fill="#4D4C4B"/>
<path fill-rule="evenodd" clip-rule="evenodd" d="M33.2339 20.5928C36.437 20.5928 39.0305 23.0295 39.0305 26.0302C39.0305 29.0376 36.437 31.4743 33.2321 31.4743C30.0342 31.4743 27.439 29.0376 27.439 26.0302C27.439 25.0294 27.7279 24.0915 28.2301 23.2842C28.6459 24.2453 29.6484 24.9202 30.8218 24.9202C32.3617 24.9202 33.6109 23.749 33.6109 22.3016C33.6109 21.6498 33.3607 21.0543 32.9432 20.5977C33.0401 20.5928 33.1352 20.5928 33.2339 20.5928Z" fill="#4D4C4B"/>
</svg>
